<svg xmlns="http://www.w3.org/2000/svg" xmlns:xlink="http://www.w3.org/1999/xlink" viewBox="0 0 30.15 28.78"><defs><style>.cls-1{isolation:isolate;}.cls-2{fill:url(#radial-gradient);}.cls-3{opacity:0.5;mix-blend-mode:multiply;fill:url(#radial-gradient-2);}</style><radialGradient id="radial-gradient" cx="5.11" cy="29.13" r="31.53" gradientUnits="userSpaceOnUse"><stop offset="0.35" stop-color="#ffc200"/><stop offset="0.51" stop-color="#ffbd07"/><stop offset="0.72" stop-color="#ffaf19"/><stop offset="0.98" stop-color="#ff9737"/><stop offset="1" stop-color="#ff953a"/></radialGradient><radialGradient id="radial-gradient-2" cx="2.72" cy="36.95" r="45.59" xlink:href="#radial-gradient"/></defs><g class="cls-1"><g id="Layer_2" data-name="Layer 2"><g id="Layer_1-2" data-name="Layer 1"><path class="cls-2" d="M24.57,27.72c.13.9-.43,1.31-1.25.9l-6.81-3.43a3.79,3.79,0,0,0-3,0L6.68,28.55c-.82.4-1.38,0-1.24-.92L6.6,20.1a3.8,3.8,0,0,0-.91-2.85L.37,11.79c-.64-.66-.43-1.32.48-1.46L8.38,9.1A3.81,3.81,0,0,0,10.8,7.36L14.35.61c.43-.81,1.12-.81,1.54,0l3.49,6.78a3.83,3.83,0,0,0,2.41,1.77l7.52,1.29c.9.16,1.11.81.47,1.47l-5.37,5.42a3.78,3.78,0,0,0-.93,2.83Z"/><path class="cls-3" d="M15.12.37c.14,0,.31.16.44.42l3.49,6.77a4.09,4.09,0,0,0,2.68,2l7.52,1.3c.28,0,.48.16.52.29s-.05.34-.26.54l-5.36,5.42a4.11,4.11,0,0,0-1,3.15l1.09,7.55a.73.73,0,0,1-.08.56.26.26,0,0,1-.21.07,1,1,0,0,1-.42-.12l-6.81-3.43A3.79,3.79,0,0,0,15,24.5a3.75,3.75,0,0,0-1.64.34L6.52,28.21a1,1,0,0,1-.42.12.24.24,0,0,1-.21-.08.72.72,0,0,1-.08-.56L7,20.15A4.16,4.16,0,0,0,6,17L.64,11.53c-.21-.21-.3-.41-.26-.54s.25-.25.53-.29L8.44,9.47a4.14,4.14,0,0,0,2.69-1.94L14.68.78c.14-.25.3-.41.44-.41m0-.37a.93.93,0,0,0-.77.61L10.8,7.36A3.81,3.81,0,0,1,8.38,9.1L.85,10.33c-.91.14-1.12.8-.48,1.46l5.32,5.46A3.8,3.8,0,0,1,6.6,20.1L5.44,27.63c-.1.67.18,1.07.66,1.07a1.39,1.39,0,0,0,.58-.15l6.84-3.38a3.76,3.76,0,0,1,3,0l6.81,3.43a1.34,1.34,0,0,0,.59.16c.48,0,.76-.4.66-1.06l-1.09-7.55a3.78,3.78,0,0,1,.93-2.83l5.37-5.42c.64-.66.43-1.31-.47-1.47L21.79,9.16a3.83,3.83,0,0,1-2.41-1.77L15.89.61A1,1,0,0,0,15.12,0Z"/></g></g></g></svg>