<svg xmlns="http://www.w3.org/2000/svg" xmlns:xlink="http://www.w3.org/1999/xlink" viewBox="0 0 210.73 32.31"><defs><style>.cls-1{isolation:isolate;}.cls-2{fill:url(#radial-gradient);}.cls-11,.cls-3,.cls-5,.cls-7,.cls-9{opacity:0.5;mix-blend-mode:multiply;}.cls-3{fill:url(#radial-gradient-2);}.cls-4{fill:url(#radial-gradient-3);}.cls-5{fill:url(#radial-gradient-4);}.cls-6{fill:url(#radial-gradient-5);}.cls-7{fill:url(#radial-gradient-6);}.cls-8{fill:url(#radial-gradient-7);}.cls-9{fill:url(#radial-gradient-8);}.cls-10{fill:url(#radial-gradient-9);}.cls-11{fill:url(#radial-gradient-10);}</style><radialGradient id="radial-gradient" cx="5.74" cy="32.7" r="35.4" gradientUnits="userSpaceOnUse"><stop offset="0.35" stop-color="#ffc200"/><stop offset="0.51" stop-color="#ffbd07"/><stop offset="0.72" stop-color="#ffaf19"/><stop offset="0.98" stop-color="#ff9737"/><stop offset="1" stop-color="#ff953a"/></radialGradient><radialGradient id="radial-gradient-2" cx="3.05" cy="41.48" r="51.18" xlink:href="#radial-gradient"/><radialGradient id="radial-gradient-3" cx="49.96" cy="32.7" r="35.4" xlink:href="#radial-gradient"/><radialGradient id="radial-gradient-4" cx="47.27" cy="41.48" r="51.18" xlink:href="#radial-gradient"/><radialGradient id="radial-gradient-5" cx="94.18" cy="32.7" r="35.4" xlink:href="#radial-gradient"/><radialGradient id="radial-gradient-6" cx="91.49" cy="41.48" r="51.18" xlink:href="#radial-gradient"/><radialGradient id="radial-gradient-7" cx="138.4" cy="32.7" r="35.4" xlink:href="#radial-gradient"/><radialGradient id="radial-gradient-8" cx="135.71" cy="41.48" r="51.18" xlink:href="#radial-gradient"/><radialGradient id="radial-gradient-9" cx="182.62" cy="32.7" r="35.4" xlink:href="#radial-gradient"/><radialGradient id="radial-gradient-10" cx="179.93" cy="41.48" r="51.18" xlink:href="#radial-gradient"/></defs><g class="cls-1"><g id="Layer_2" data-name="Layer 2"><g id="Layer_1-2" data-name="Layer 1"><path class="cls-2" d="M27.58,31.11c.15,1-.48,1.48-1.4,1l-7.65-3.84a4.2,4.2,0,0,0-3.35,0L7.5,32c-.92.46-1.55,0-1.39-1l1.3-8.46a4.26,4.26,0,0,0-1-3.19l-6-6.13c-.72-.74-.47-1.48.55-1.65L9.4,10.21a4.21,4.21,0,0,0,2.72-2l4-7.58c.48-.91,1.26-.91,1.73,0L21.76,8.3a4.29,4.29,0,0,0,2.7,2l8.44,1.45c1,.18,1.25.92.53,1.65l-6,6.08a4.29,4.29,0,0,0-1,3.18Z"/><path class="cls-3" d="M17,.42c.15,0,.34.17.49.46l3.92,7.61a4.61,4.61,0,0,0,3,2.2l8.44,1.45c.32.06.54.18.58.33s0,.38-.28.61l-6,6.08a4.61,4.61,0,0,0-1.17,3.54l1.23,8.47a.83.83,0,0,1-.1.63.27.27,0,0,1-.23.09,1.15,1.15,0,0,1-.48-.14L18.72,27.9a4.24,4.24,0,0,0-1.88-.4,4.39,4.39,0,0,0-1.85.38L7.32,31.67a1.24,1.24,0,0,1-.47.13.3.3,0,0,1-.24-.09.81.81,0,0,1-.09-.62l1.3-8.47a4.62,4.62,0,0,0-1.13-3.54l-6-6.14c-.22-.23-.33-.46-.28-.61S.7,12.06,1,12l8.45-1.37a4.65,4.65,0,0,0,3-2.18l4-7.57c.15-.29.34-.46.5-.46M17,0a1.06,1.06,0,0,0-.87.68l-4,7.58a4.21,4.21,0,0,1-2.72,2L1,11.59c-1,.17-1.27.91-.55,1.65l6,6.13a4.26,4.26,0,0,1,1,3.19L6.11,31c-.12.75.19,1.2.74,1.2A1.49,1.49,0,0,0,7.5,32l7.68-3.78a4.18,4.18,0,0,1,3.35,0l7.65,3.84a1.37,1.37,0,0,0,.66.18c.54,0,.85-.44.74-1.19l-1.23-8.47a4.29,4.29,0,0,1,1-3.18l6-6.08c.72-.73.48-1.47-.53-1.65l-8.44-1.45a4.29,4.29,0,0,1-2.7-2L17.84.69C17.6.23,17.29,0,17,0Z"/><path class="cls-4" d="M71.8,31.11c.15,1-.48,1.48-1.4,1l-7.65-3.84a4.2,4.2,0,0,0-3.35,0L51.72,32c-.92.46-1.55,0-1.39-1l1.3-8.46a4.22,4.22,0,0,0-1-3.19l-6-6.13c-.71-.74-.47-1.48.55-1.65l8.44-1.38a4.21,4.21,0,0,0,2.72-2l4-7.58c.48-.91,1.26-.91,1.73,0L66,8.3a4.29,4.29,0,0,0,2.7,2l8.44,1.45c1,.18,1.25.92.53,1.65l-6,6.08a4.29,4.29,0,0,0-1.05,3.18Z"/><path class="cls-5" d="M61.2.42c.15,0,.34.17.49.46l3.92,7.61a4.61,4.61,0,0,0,3,2.2l8.44,1.45c.32.06.54.18.59.33s-.06.38-.29.61l-6,6.08a4.61,4.61,0,0,0-1.17,3.54l1.23,8.47a.89.89,0,0,1-.09.63.32.32,0,0,1-.24.09,1.08,1.08,0,0,1-.47-.14L62.94,27.9a4.24,4.24,0,0,0-1.88-.4,4.39,4.39,0,0,0-1.85.38l-7.67,3.79a1.24,1.24,0,0,1-.47.13.3.3,0,0,1-.24-.09.81.81,0,0,1-.09-.62L52,22.62a4.62,4.62,0,0,0-1.13-3.54l-6-6.14c-.22-.23-.33-.46-.28-.61s.27-.27.59-.33l8.45-1.37a4.65,4.65,0,0,0,3-2.18l4-7.57c.15-.29.34-.46.5-.46m0-.42a1.06,1.06,0,0,0-.87.68l-4,7.58a4.21,4.21,0,0,1-2.72,2l-8.44,1.38c-1,.17-1.26.91-.55,1.65l6,6.13a4.22,4.22,0,0,1,1,3.19L50.33,31c-.12.75.19,1.2.74,1.2a1.49,1.49,0,0,0,.65-.18l7.68-3.78a4.18,4.18,0,0,1,3.35,0l7.65,3.84a1.4,1.4,0,0,0,.66.18c.54,0,.85-.44.74-1.19l-1.23-8.47a4.29,4.29,0,0,1,1.05-3.18l6-6.08c.72-.73.49-1.47-.53-1.65l-8.44-1.45a4.29,4.29,0,0,1-2.7-2L62.06.69C61.82.23,61.51,0,61.2,0Z"/><path class="cls-6" d="M116,31.11c.15,1-.48,1.48-1.4,1L107,28.28a4.2,4.2,0,0,0-3.35,0L95.94,32c-.92.46-1.55,0-1.39-1l1.3-8.46a4.22,4.22,0,0,0-1-3.19l-6-6.13c-.71-.74-.47-1.48.55-1.65l8.44-1.38a4.21,4.21,0,0,0,2.72-2l4-7.58c.48-.91,1.26-.91,1.73,0L110.2,8.3a4.29,4.29,0,0,0,2.7,2l8.44,1.45c1,.18,1.25.92.53,1.65l-6,6.08a4.29,4.29,0,0,0-1,3.18Z"/><path class="cls-7" d="M105.42.42c.16,0,.34.17.49.46l3.92,7.61a4.61,4.61,0,0,0,3,2.2l8.44,1.45c.32.06.54.18.59.33s-.06.38-.29.61l-6,6.08a4.61,4.61,0,0,0-1.17,3.54l1.23,8.47a.89.89,0,0,1-.09.63.3.3,0,0,1-.24.09,1.08,1.08,0,0,1-.47-.14l-7.65-3.85a4.24,4.24,0,0,0-1.88-.4,4.31,4.31,0,0,0-1.84.38l-7.68,3.79a1.24,1.24,0,0,1-.47.13.3.3,0,0,1-.24-.09.81.81,0,0,1-.09-.62l1.3-8.47a4.62,4.62,0,0,0-1.13-3.54l-6-6.14c-.23-.23-.34-.46-.29-.61s.27-.27.59-.33l8.45-1.37a4.69,4.69,0,0,0,3-2.18l4-7.57c.15-.29.34-.46.5-.46m0-.42a1.06,1.06,0,0,0-.87.68l-4,7.58a4.21,4.21,0,0,1-2.72,2L89.4,11.59c-1,.17-1.26.91-.55,1.65l6,6.13a4.22,4.22,0,0,1,1,3.19L94.55,31c-.12.75.2,1.2.74,1.2a1.49,1.49,0,0,0,.65-.18l7.68-3.78a4.18,4.18,0,0,1,3.35,0l7.65,3.84a1.4,1.4,0,0,0,.66.18c.54,0,.85-.44.74-1.19l-1.23-8.47a4.29,4.29,0,0,1,1-3.18l6-6.08c.72-.73.49-1.47-.53-1.65l-8.44-1.45a4.29,4.29,0,0,1-2.7-2L106.28.69c-.24-.46-.55-.69-.86-.69Z"/><path class="cls-8" d="M160.24,31.11c.15,1-.48,1.48-1.4,1l-7.65-3.84a4.2,4.2,0,0,0-3.35,0L140.16,32c-.92.46-1.55,0-1.39-1l1.3-8.46a4.22,4.22,0,0,0-1-3.19l-6-6.13c-.72-.74-.48-1.48.54-1.65l8.44-1.38a4.19,4.19,0,0,0,2.72-2l4-7.58c.48-.91,1.26-.91,1.73,0l3.92,7.61a4.31,4.31,0,0,0,2.71,2l8.43,1.45c1,.18,1.25.92.53,1.65l-6,6.08A4.29,4.29,0,0,0,159,22.64Z"/><path class="cls-9" d="M149.64.42c.16,0,.34.17.49.46l3.92,7.61a4.61,4.61,0,0,0,3,2.2l8.44,1.45c.32.06.54.18.59.33s-.06.38-.29.61l-6,6.08a4.61,4.61,0,0,0-1.17,3.54l1.23,8.47a.89.89,0,0,1-.09.63.3.3,0,0,1-.24.09,1.11,1.11,0,0,1-.47-.14l-7.65-3.85a4.17,4.17,0,0,0-1.88-.4,4.31,4.31,0,0,0-1.84.38L140,31.67a1.24,1.24,0,0,1-.47.13.3.3,0,0,1-.24-.09.81.81,0,0,1-.09-.62l1.3-8.47a4.62,4.62,0,0,0-1.13-3.54l-6-6.14c-.23-.23-.34-.46-.29-.61s.28-.27.59-.33l8.45-1.37a4.69,4.69,0,0,0,3-2.18l4-7.57c.15-.29.34-.46.5-.46m0-.42a1.06,1.06,0,0,0-.87.68l-4,7.58a4.19,4.19,0,0,1-2.72,2l-8.44,1.38c-1,.17-1.26.91-.54,1.65l6,6.13a4.22,4.22,0,0,1,1,3.19L138.77,31c-.12.75.2,1.2.74,1.2a1.49,1.49,0,0,0,.65-.18l7.68-3.78a4.18,4.18,0,0,1,3.35,0l7.65,3.84a1.4,1.4,0,0,0,.66.18c.54,0,.85-.44.74-1.19L159,22.64a4.29,4.29,0,0,1,1.05-3.18l6-6.08c.72-.73.49-1.47-.53-1.65l-8.43-1.45a4.31,4.31,0,0,1-2.71-2L150.5.69C150.26.23,150,0,149.64,0Z"/><path class="cls-10" d="M204.46,31.11c.15,1-.48,1.48-1.4,1l-7.65-3.84a4.2,4.2,0,0,0-3.35,0L184.39,32c-.93.46-1.56,0-1.4-1l1.3-8.46a4.22,4.22,0,0,0-1-3.19l-6-6.13c-.72-.74-.48-1.48.54-1.65l8.45-1.38a4.24,4.24,0,0,0,2.72-2l4-7.58c.48-.91,1.26-.91,1.73,0l3.92,7.61a4.31,4.31,0,0,0,2.71,2l8.43,1.45c1,.18,1.25.92.53,1.65l-6,6.08a4.26,4.26,0,0,0-1.06,3.18Z"/><path class="cls-11" d="M193.86.42c.16,0,.34.17.49.46l3.92,7.61a4.66,4.66,0,0,0,3,2.2l8.43,1.45c.32.06.54.18.59.33s-.06.38-.29.61l-6,6.08a4.65,4.65,0,0,0-1.17,3.54l1.23,8.47a.84.84,0,0,1-.09.63.3.3,0,0,1-.24.09,1.11,1.11,0,0,1-.47-.14L195.6,27.9a4.17,4.17,0,0,0-1.88-.4,4.34,4.34,0,0,0-1.84.38l-7.68,3.79a1.24,1.24,0,0,1-.47.13.3.3,0,0,1-.24-.09.77.77,0,0,1-.08-.62l1.3-8.47a4.67,4.67,0,0,0-1.14-3.54l-6-6.14c-.23-.23-.34-.46-.28-.61s.27-.27.59-.33l8.44-1.37a4.67,4.67,0,0,0,3-2.18l4-7.57c.15-.29.34-.46.5-.46m0-.42a1.08,1.08,0,0,0-.87.68l-4,7.58a4.24,4.24,0,0,1-2.72,2l-8.45,1.38c-1,.17-1.26.91-.54,1.65l6,6.13a4.22,4.22,0,0,1,1,3.19L183,31c-.12.75.2,1.2.74,1.2a1.56,1.56,0,0,0,.66-.18l7.67-3.78a4.18,4.18,0,0,1,3.35,0l7.65,3.84a1.4,1.4,0,0,0,.66.18c.54,0,.85-.44.74-1.19l-1.23-8.47a4.26,4.26,0,0,1,1.06-3.18l6-6.08c.72-.73.49-1.47-.53-1.65l-8.43-1.45a4.31,4.31,0,0,1-2.71-2L194.72.69a1,1,0,0,0-.86-.69Z"/></g></g></g></svg>