<svg width="67" height="112" viewBox="0 0 67 112" fill="none" xmlns="http://www.w3.org/2000/svg">
<path d="M59 63.5C63.1421 63.5 66.5 60.1421 66.5 56C66.5 51.8579 63.1421 48.5 59 48.5L59 63.5ZM2.6967 50.6967C-0.232233 53.6256 -0.232233 58.3744 2.6967 61.3033L50.4264 109.033C53.3553 111.962 58.1041 111.962 61.033 109.033C63.9619 106.104 63.9619 101.355 61.033 98.4264L18.6066 56L61.033 13.5736C63.9619 10.6447 63.9619 5.89592 61.033 2.96699C58.1041 0.0380591 53.3553 0.0380587 50.4264 2.96699L2.6967 50.6967ZM59 48.5L8 48.5L8 63.5L59 63.5L59 48.5Z" fill="#424242" fill-opacity="0.5"/>
</svg>
