<svg width="67" height="112" viewBox="0 0 67 112" fill="none" xmlns="http://www.w3.org/2000/svg">
<path d="M8 48.5C3.85786 48.5 0.5 51.8579 0.5 56C0.5 60.1421 3.85786 63.5 8 63.5V48.5ZM64.3033 61.3033C67.2322 58.3744 67.2322 53.6256 64.3033 50.6967L16.5736 2.96699C13.6447 0.0380592 8.89592 0.0380592 5.96699 2.96699C3.03806 5.89592 3.03806 10.6447 5.96699 13.5736L48.3934 56L5.96699 98.4264C3.03806 101.355 3.03806 106.104 5.96699 109.033C8.89592 111.962 13.6447 111.962 16.5736 109.033L64.3033 61.3033ZM8 63.5H59V48.5H8V63.5Z" fill="#424242" fill-opacity="0.5"/>
</svg>
